<?xml version="1.0" encoding="UTF-8"?><svg id="Layer_2" xmlns="http://www.w3.org/2000/svg" viewBox="0 0 314 282"><g id="Layer_1-2"><path d="M266.37,0h47.63v282H.18V60.7c1.72,7.88,4.61,14.09,8.24,21.17,9.05,17.64,21.02,34.57,30.83,51.31,24.29,41.49,47.84,83.42,72.22,124.87,22.55,29.76,64.44,31.22,88.43,2.78,21.88-35.4,41.72-72.02,62.72-107.93,14.05-24.03,31.62-48.56,44.08-73.83,6.9-14,8.83-27.44,4.01-42.61-6.22-19.54-24.47-33.19-44.33-36.46Z" style="fill:#fff;"/><path d="M60.89,0c7.17,2.09,13.65,3.58,20.24,7.31,16.28,9.23,21.56,24.12,30.84,39.15l44.66,74.91c.88-.71,1.55-1.55,2.18-2.47,11.12-16.15,21.7-36.41,31.76-53.18,8.18-13.63,15.89-30.58,24.98-43.23,9.34-13,22.15-19.62,37.74-22.49h13.08c19.86,3.27,38.11,16.91,44.33,36.46,4.82,15.17,2.89,28.61-4.01,42.61-12.46,25.28-30.02,49.8-44.08,73.83-21,35.91-40.84,72.53-62.72,107.93-23.99,28.44-65.87,26.97-88.43-2.78-24.37-41.44-47.93-83.37-72.22-124.87-9.8-16.75-21.78-33.67-30.83-51.31-3.64-7.08-6.52-13.29-8.24-21.17.4-4.77-.56-10.3,0-14.94C2.95,22.59,25.01,2.63,47.81,0h13.08ZM112.64,82.72c-8.27-13.87-25.77-49.45-36.89-57.9-16.23-12.33-40.52-8.08-51.87,8.67-15.08,22.25,1.38,42.65,12.76,61.97,20.97,35.58,41.92,72.19,63.32,107.79,1.02,1.7,3.95,7.17,5.3,7.77l41.23-71.42c-10.6-17.45-20.32-35.46-30.69-53.05-.99-1.68-2.68-3.04-3.15-3.83ZM264.18,117.36c6.95-11.83,29.98-47.92,31.13-59.01,2.97-28.79-23.96-48.88-50.67-37.58-10.65,4.51-14.73,12.31-20.47,21.56-34.88,56.18-66.21,114.79-99.95,171.81-13.24,47.04,39.34,69.2,67.21,27.07,24.84-37.56,46.98-82.16,70.04-121.44.85-1.45,2.42-1.93,2.69-2.4Z"/><path d="M253.29,0c-15.59,2.87-28.4,9.49-37.74,22.49-9.09,12.65-16.8,29.6-24.98,43.23-10.06,16.77-20.64,37.03-31.76,53.18-.64.92-1.31,1.76-2.18,2.47l-44.66-74.91c-9.28-15.03-14.55-29.92-30.84-39.15-6.59-3.73-13.07-5.22-20.24-7.31h192.4Z" style="fill:#fff;"/><path d="M47.81,0C25.01,2.63,2.95,22.59.18,45.75V0h47.63Z" style="fill:#fff;"/><path d="M264.18,117.36c-.28.47-1.84.95-2.69,2.4-23.06,39.29-45.2,83.89-70.04,121.44-27.87,42.13-80.46,19.97-67.21-27.07,33.73-57.02,65.06-115.63,99.95-171.81,5.74-9.24,9.81-17.05,20.47-21.56,26.7-11.3,53.63,8.79,50.67,37.58-1.14,11.09-24.18,47.17-31.13,59.01ZM154.03,211.25c-14.46,3-14.56,26.66.94,29.44,23.61,4.24,24.67-34.75-.94-29.44Z" style="fill:#fff;"/><path d="M112.64,82.72c.47.79,2.16,2.15,3.15,3.83,10.37,17.59,20.09,35.6,30.69,53.05l-41.23,71.42c-1.35-.6-4.28-6.07-5.3-7.77-21.39-35.59-42.35-72.21-63.32-107.79-11.39-19.32-27.84-39.72-12.76-61.97,11.35-16.75,35.64-21.01,51.87-8.67,11.12,8.45,28.62,44.02,36.89,57.9Z" style="fill:#fff;"/><path d="M154.03,211.25c25.61-5.3,24.55,33.69.94,29.44-15.49-2.78-15.4-26.45-.94-29.44Z"/></g></svg>