<?xml version="1.0" standalone="no"?>
<svg version="1.0" xmlns="http://www.w3.org/2000/svg"
 viewBox="10.23125258324819 10.461053571214208 2117.62028755481 593.3201781102468"
 preserveAspectRatio="xMidYMid meet">
<g fill="#cc947f" stroke="none">
<path d="M 710.00,18.80 L 548.36,25.20 L 362.91,32.62 L 209.92,38.80 L 146.45,41.45 L 146.18,41.49 L 144.62,41.75 L 142.64,42.08 L 140.43,42.46 L 138.36,42.83 L 132.32,44.10 L 125.22,46.08 L 117.53,48.59 L 110.16,51.36 L 103.94,54.06 L 96.02,58.16 L 88.79,62.59 L 81.89,67.59 L 74.91,73.47 L 67.65,80.38 L 56.58,92.62 L 47.59,105.00 L 40.37,117.87 L 34.74,131.54 L 30.58,146.21 L 29.80,151.19 L 28.31,162.67 L 26.36,178.71 L 24.14,197.94 L 21.81,219.11 L 18.68,248.84 L 16.68,268.95 L 15.61,281.91 L 15.23,290.32 L 15.30,296.99 L 15.77,305.10 L 16.56,312.37 L 17.71,319.18 L 19.32,326.04 L 21.26,332.63 L 36.71,365.16 L 59.26,391.54 L 87.62,411.38 L 120.00,423.43 L 155.15,426.62 L 166.62,425.20 L 198.70,420.10 L 256.28,410.42 L 345.32,395.17 L 471.95,373.32 L 569.34,356.48 L 655.29,341.63 L 724.43,329.68 L 771.40,321.57 L 790.96,318.20 L 823.96,313.01 L 859.82,308.19 L 897.04,303.91 L 934.24,300.30 L 970.06,297.53 L 1020.45,295.09 L 1072.80,294.08 L 1125.66,294.49 L 1177.61,296.31 L 1227.47,299.56 L 1403.98,322.80 L 1575.97,363.09 L 1742.61,420.20 L 1903.31,493.91 L 2057.13,583.80 L 2068.42,591.02 L 2075.82,595.27 L 2080.58,597.36 L 2084.30,598.32 L 2088.79,598.78 L 2094.79,598.64 L 2099.83,597.66 L 2104.41,595.88 L 2108.92,593.10 L 2113.09,589.48 L 2119.26,581.03 L 2122.41,571.88 L 2122.85,562.35 L 2120.62,553.48 L 2115.51,545.39 L 2107.77,538.03 L 2088.40,520.29 L 2063.72,497.96 L 2038.92,475.72 L 2019.27,458.32 L 1933.48,387.96 L 1843.99,323.36 L 1750.67,264.43 L 1653.51,211.16 L 1552.50,163.55 L 1463.52,127.76 L 1372.16,96.63 L 1279.04,70.33 L 1184.75,49.05 L 1089.76,32.93 L 1057.00,28.59 L 1024.12,24.86 L 990.68,21.72 L 956.07,19.11 L 919.82,16.99 L 900.43,16.37 L 871.21,15.86 L 838.84,15.54 L 810.01,15.46 L 791.38,15.70 L 710.00,18.80 Z M 1046.76,48.04 L 1172.55,67.38 L 1296.03,95.65 L 1417.66,132.95 L 1537.73,179.33 L 1562.98,190.47 L 1591.53,203.64 L 1620.73,217.58 L 1647.79,230.93 L 1669.92,242.40 L 1737.00,280.08 L 1799.93,318.68 L 1859.94,359.04 L 1918.25,402.00 L 1976.06,448.34 L 1995.58,465.00 L 2020.30,486.58 L 2044.82,508.30 L 2063.78,525.41 L 2119.61,579.51 L 2054.58,557.26 L 2052.11,555.94 L 2049.97,554.70 L 2047.47,553.18 L 2045.04,551.64 L 1922.06,480.63 L 1794.88,419.89 L 1663.61,369.39 L 1528.58,329.28 L 1390.10,299.68 L 1272.32,283.32 L 1153.90,274.78 L 1035.27,274.10 L 916.81,281.27 L 798.70,296.34 L 778.58,299.76 L 731.35,307.87 L 662.64,319.71 L 577.76,334.36 L 482.05,350.88 L 386.74,367.35 L 302.88,381.84 L 235.67,393.44 L 190.31,401.26 L 171.41,404.49 L 149.60,406.37 L 127.87,404.33 L 107.23,398.30 L 88.14,388.35 L 71.00,374.69 L 56.96,358.67 L 46.30,340.86 L 39.16,321.53 L 35.72,301.05 L 36.01,280.43 L 39.86,242.81 L 43.56,208.57 L 46.88,179.67 L 49.53,158.57 L 51.37,146.98 L 55.32,134.83 L 60.70,123.20 L 67.39,112.09 L 75.27,101.70 L 84.25,92.21 L 96.52,82.12 L 109.94,73.86 L 124.29,67.57 L 139.40,63.36 L 154.70,61.34 L 174.13,60.51 L 220.61,58.61 L 289.45,55.83 L 375.33,52.39 L 472.90,48.51 L 615.30,42.85 L 709.10,39.25 L 767.84,37.23 L 804.99,36.34 L 833.96,36.10 L 853.58,36.16 L 872.23,36.33 L 889.50,36.62 L 904.97,37.02 L 918.40,37.52 L 1046.76,48.04 Z"/>
</g>
</svg>
