<?xml version="1.0" standalone="no"?>
<svg version="1.0" xmlns="http://www.w3.org/2000/svg"
 viewBox="-4.285978828698521 -3.8695482861376407 92.94655673588817 48.334558842786564"
 preserveAspectRatio="xMidYMid meet">
<g fill="#cc947f" stroke="none">
<path d="M 0.71,22.74 L 0.91,23.07 L 1.64,24.07 L 2.66,25.28 L 3.89,26.63 L 5.18,28.08 L 6.32,29.58 L 7.25,31.01 L 7.88,32.29 L 8.12,33.29 L 8.21,34.78 L 8.23,35.79 L 8.12,36.61 L 7.88,37.43 L 7.50,38.40 L 7.36,39.30 L 7.61,39.47 L 8.89,39.18 L 11.16,38.07 L 14.27,36.13 L 22.57,31.88 L 31.51,29.76 L 40.66,29.79 L 49.62,31.96 L 57.97,36.23 L 60.61,37.98 L 62.43,38.94 L 64.02,39.29 L 65.99,39.18 L 68.91,38.68 L 73.44,37.47 L 77.14,35.66 L 80.05,33.25 L 82.14,30.25 L 83.44,26.63 L 83.63,25.66 L 83.66,25.02 L 83.57,24.74 L 83.42,24.63 L 83.03,24.57 L 82.73,24.64 L 82.47,24.82 L 82.25,25.18 L 82.08,25.73 L 82.01,26.55 L 81.18,29.71 L 78.93,32.71 L 75.71,35.21 L 71.88,36.93 L 67.86,37.57 L 63.21,37.57 L 67.75,34.84 L 68.85,34.09 L 70.13,33.05 L 71.47,31.83 L 72.77,30.52 L 73.93,29.25 L 76.83,25.35 L 79.16,21.04 L 80.64,17.08 L 81.00,14.38 L 80.39,13.68 L 80.34,13.72 L 80.18,13.99 L 80.07,14.35 L 80.01,14.85 L 78.93,19.22 L 76.16,24.25 L 72.37,29.11 L 68.20,33.01 L 64.28,35.15 L 61.82,35.50 L 60.21,35.07 L 60.14,33.65 L 61.36,32.10 L 63.61,30.27 L 65.10,29.16 L 66.60,27.94 L 68.01,26.70 L 69.18,25.54 L 70.02,24.56 L 71.74,22.04 L 73.37,19.06 L 74.74,15.99 L 75.68,13.23 L 76.01,11.15 L 75.91,10.23 L 75.70,10.45 L 74.96,11.94 L 74.08,14.35 L 72.07,19.09 L 69.21,23.48 L 65.74,27.25 L 61.89,30.19 L 57.86,32.05 L 56.67,32.22 L 56.31,31.29 L 56.96,30.24 L 58.14,28.89 L 59.96,27.02 L 61.79,25.06 L 63.34,23.11 L 64.62,21.17 L 65.62,19.24 L 66.34,17.31 L 67.54,13.26 L 68.36,9.63 L 68.77,6.73 L 68.74,4.95 L 68.60,4.75 L 68.38,5.05 L 68.04,5.78 L 67.74,6.74 L 67.51,7.87 L 66.18,13.75 L 64.27,18.92 L 61.85,23.26 L 58.96,26.70 L 55.67,29.10 L 53.43,30.07 L 51.80,30.29 L 51.33,29.14 L 52.26,27.67 L 54.06,25.82 L 55.14,24.65 L 56.32,23.12 L 57.51,21.35 L 58.62,19.48 L 59.56,17.66 L 61.06,13.73 L 62.17,9.56 L 62.79,5.83 L 62.81,3.27 L 62.43,2.68 L 62.36,2.74 L 62.19,3.01 L 62.07,3.40 L 62.02,3.92 L 61.67,6.84 L 60.76,10.61 L 59.48,14.61 L 58.02,18.28 L 56.54,21.04 L 54.78,23.28 L 52.73,25.31 L 50.60,26.98 L 48.58,28.13 L 46.82,28.58 L 46.09,28.39 L 45.84,27.73 L 46.05,27.09 L 46.46,26.48 L 47.05,25.83 L 47.76,25.04 L 48.54,24.05 L 49.33,22.91 L 50.06,21.75 L 50.66,20.66 L 51.75,17.44 L 52.52,12.99 L 52.91,8.25 L 52.83,4.16 L 52.25,1.65 L 51.94,1.14 L 51.94,1.13 L 51.90,1.94 L 51.84,3.77 L 51.78,6.03 L 51.72,8.59 L 51.38,13.20 L 50.68,17.01 L 49.53,20.21 L 47.88,22.96 L 45.66,25.43 L 43.67,26.99 L 42.08,27.65 L 40.95,27.03 L 41.28,25.45 L 42.49,23.50 L 44.26,20.59 L 45.60,17.12 L 46.49,13.33 L 46.84,9.48 L 46.62,5.83 L 45.97,2.75 L 45.70,2.20 L 45.41,3.98 L 45.32,7.78 L 45.18,12.31 L 44.64,16.19 L 43.65,19.49 L 42.20,22.25 L 40.28,24.51 L 36.01,28.44 L 38.65,22.39 L 39.17,20.86 L 39.54,19.24 L 39.77,17.54 L 39.87,15.82 L 39.82,14.11 L 39.24,10.74 L 38.30,7.50 L 37.20,4.85 L 36.18,3.30 L 35.71,3.15 L 35.65,3.44 L 35.73,4.02 L 35.99,4.83 L 36.48,5.86 L 37.74,8.93 L 38.50,12.14 L 38.73,15.39 L 38.43,18.58 L 37.59,21.64 L 36.18,24.71 L 34.86,26.59 L 33.32,27.26 L 33.02,25.41 L 33.74,22.63 L 34.24,20.99 L 34.55,19.33 L 34.70,17.63 L 34.69,15.89 L 34.52,14.14 L 33.84,10.75 L 32.95,7.76 L 31.97,5.46 L 31.10,4.22 L 30.65,4.11 L 30.60,4.16 L 30.52,4.34 L 30.52,4.65 L 30.65,5.11 L 30.97,5.76 L 32.12,8.54 L 32.94,11.79 L 33.39,15.18 L 33.44,18.42 L 33.01,21.18 L 32.14,23.98 L 31.24,25.65 L 30.00,25.52 L 29.55,23.68 L 29.42,20.80 L 29.06,17.43 L 28.12,13.85 L 26.83,10.61 L 25.47,8.34 L 24.39,7.59 L 24.15,7.62 L 24.14,7.64 L 24.25,8.21 L 24.85,9.61 L 25.98,11.87 L 27.33,15.72 L 27.97,20.04 L 27.90,24.08 L 27.13,27.21 L 25.39,28.66 L 24.63,28.29 L 24.32,27.64 L 24.21,26.86 L 24.25,25.93 L 24.42,24.91 L 24.61,22.36 L 24.28,19.46 L 23.49,16.42 L 22.31,13.50 L 20.81,10.95 L 19.54,9.42 L 19.32,9.32 L 19.71,10.70 L 20.86,12.93 L 21.67,14.43 L 22.28,16.07 L 22.68,17.86 L 22.89,19.84 L 22.92,22.06 L 22.91,24.92 L 22.63,27.14 L 21.32,26.07 L 20.20,23.64 L 18.36,19.27 L 17.16,16.71 L 15.81,14.44 L 14.51,12.69 L 13.55,11.80 L 13.47,11.79 L 13.60,12.35 L 14.01,13.42 L 14.64,14.71 L 15.46,16.12 L 17.25,19.55 L 18.51,22.59 L 19.24,25.27 L 19.41,27.59 L 19.00,29.52 L 18.56,30.54 L 17.94,31.51 L 17.22,30.79 L 17.14,29.85 L 17.12,28.52 L 16.63,26.01 L 15.45,22.70 L 13.84,19.21 L 12.12,16.21 L 10.59,14.35 L 9.67,13.81 L 9.36,13.80 L 9.31,13.88 L 9.47,14.49 L 10.23,15.58 L 12.55,18.94 L 14.41,23.08 L 15.58,27.25 L 15.85,30.77 L 14.88,32.99 L 14.09,33.20 L 13.51,32.79 L 13.22,32.17 L 13.07,31.40 L 13.02,30.52 L 12.57,28.15 L 11.38,25.31 L 9.67,22.39 L 7.70,19.85 L 5.71,18.06 L 4.66,17.38 L 4.06,17.07 L 4.06,17.07 L 4.02,17.55 L 4.08,17.96 L 4.25,18.36 L 4.52,18.72 L 4.84,19.00 L 5.30,19.25 L 7.12,20.71 L 8.95,23.28 L 10.51,26.40 L 11.57,29.57 L 11.82,32.26 L 11.36,37.33 L 8.08,30.91 L 6.45,28.15 L 4.51,25.67 L 2.55,23.74 L 1.00,22.73 L 0.71,22.74 Z"/>
</g>
</svg>
