<?xml version="1.0" standalone="no"?>
<!DOCTYPE svg PUBLIC "-//W3C//DTD SVG 20010904//EN"
 "http://www.w3.org/TR/2001/REC-SVG-20010904/DTD/svg10.dtd">
<svg version="1.0" xmlns="http://www.w3.org/2000/svg"
 width="2458.000000pt" height="1229.000000pt" viewBox="-705 0 2458 1229"
 preserveAspectRatio="xMidYMid meet">
<metadata>
Created by potrace 1.16, written by Peter Selinger 2001-2019
</metadata>
<g transform="translate(0.000000,1229.000000) scale(0.100000,-0.100000)"
fill="#cc947f" stroke="none">
<path d="M530 12275 c-140 -28 -273 -104 -365 -207 -54 -62 -118 -187 -140
-273 -19 -76 -19 -224 0 -300 37 -147 138 -295 253 -372 31 -21 1039 -609
2239 -1307 1884 -1096 2183 -1273 2188 -1296 14 -62 45 -90 262 -233 632 -419
913 -661 1008 -868 13 -30 40 -119 60 -199 31 -125 37 -167 42 -305 12 -330
-35 -816 -121 -1246 -57 -287 -73 -458 -57 -614 20 -189 62 -297 150 -386 127
-127 336 -145 468 -40 89 70 146 189 180 376 23 122 22 441 -1 625 -67 535
-72 945 -16 1260 48 261 92 325 316 458 264 155 375 267 474 475 90 187 87
444 -6 629 -56 112 -194 257 -336 355 -40 28 -392 225 -783 438 -742 405 -753
410 -828 386 l-35 -12 -2273 1302 c-1251 715 -2296 1310 -2324 1321 -63 25
-183 48 -243 47 -26 0 -76 -7 -112 -14z m225 -256 c22 -6 1072 -601 2333
-1322 l2294 -1312 -5 -65 c-15 -183 -165 -404 -348 -512 -35 -21 -84 -45 -110
-53 l-46 -16 -2223 1293 c-1222 711 -2242 1310 -2266 1331 -28 25 -57 66 -81
115 -36 71 -38 82 -38 166 0 81 4 98 31 156 51 108 123 176 227 211 59 21 171
25 232 8z m5580 -3059 c336 -183 639 -354 675 -380 74 -55 174 -156 213 -215
55 -83 74 -262 41 -376 -23 -80 -89 -184 -159 -253 -34 -34 -110 -90 -169
-126 -198 -121 -231 -144 -302 -214 -89 -89 -141 -190 -178 -342 -48 -203 -58
-294 -63 -590 -6 -304 2 -450 43 -809 42 -361 27 -663 -39 -780 -29 -51 -60
-67 -112 -55 -87 19 -124 105 -132 301 -7 150 7 274 53 502 39 196 76 437 101
667 14 127 18 243 17 500 l0 335 -41 155 c-22 85 -50 180 -62 211 -95 251
-386 521 -1009 938 l-154 102 81 47 c177 103 312 246 402 427 49 99 89 229 89
290 0 45 7 47 54 21 22 -13 316 -174 651 -356z"/>
<path d="M3167 3655 c-51 -19 -87 -49 -114 -93 -21 -33 -23 -50 -23 -163 l0
-126 -144 -5 c-129 -4 -149 -7 -192 -29 -29 -15 -61 -42 -79 -68 l-30 -43 -3
-1471 c-1 -810 0 -1487 3 -1505 8 -42 68 -110 120 -133 38 -18 184 -19 3810
-19 2600 0 3782 3 3808 11 49 13 105 63 128 114 18 38 19 109 19 1499 0 1080
-3 1469 -12 1497 -14 47 -68 106 -117 127 -25 10 -81 17 -178 20 l-143 5 0
118 c0 134 -7 159 -58 212 -71 73 228 67 -3446 66 -2804 0 -3317 -3 -3349 -14z
m6603 -315 l0 -70 -3245 0 -3245 0 0 70 0 70 3245 0 3245 0 0 -70z m440 -1710
l0 -1380 -3690 0 -3690 0 0 1380 0 1380 3690 0 3690 0 0 -1380z"/>
</g>
</svg>
