<?xml version="1.0" standalone="no"?>
<!DOCTYPE svg PUBLIC "-//W3C//DTD SVG 20010904//EN"
 "http://www.w3.org/TR/2001/REC-SVG-20010904/DTD/svg10.dtd">
<svg version="1.0" xmlns="http://www.w3.org/2000/svg"
 width="137.000000pt" height="176.000000pt" viewBox="0 0 137.000000 176.000000"
 preserveAspectRatio="xMidYMid meet">
<metadata>
Created by potrace 1.16, written by Peter Selinger 2001-2019
</metadata>
<g transform="translate(0.000000,176.000000) scale(0.100000,-0.100000)"
fill="#000000" stroke="none">
<path d="M0 1031 c0 -571 3 -731 13 -738 6 -6 73 -13 147 -16 86 -4 162 -13
208 -25 73 -20 115 -40 57 -27 -17 3 -3 -5 30 -19 70 -30 68 -30 59 -13 -4 7
-3 9 2 4 5 -5 9 -14 9 -20 0 -5 6 -12 14 -15 9 -3 11 0 6 9 -5 8 -4 11 1 6 5
-5 9 -14 9 -20 0 -5 6 -12 14 -15 8 -3 11 0 7 7 -13 21 0 11 30 -21 28 -32 28
-32 2 -9 -36 32 -36 20 -1 -14 29 -26 49 -33 37 -12 -4 7 -3 9 2 4 5 -5 9 -13
9 -19 0 -6 25 -23 55 -39 64 -32 116 -48 106 -31 -4 8 3 8 26 1 36 -11 323 -9
293 1 -16 6 -15 8 10 14 64 15 69 15 40 1 -49 -23 -13 -17 51 9 32 14 58 29
57 35 -2 6 4 8 13 4 19 -7 64 34 64 59 0 25 -33 89 -58 111 -23 21 -79 20 -74
-1 1 -8 -2 -11 -7 -8 -5 3 -33 -5 -62 -19 -30 -14 -43 -23 -29 -20 21 5 22 4
7 -5 -9 -6 -25 -9 -35 -6 -9 2 -57 1 -107 -4 l-90 -9 95 3 c74 2 87 1 60 -7
-51 -14 -190 -4 -204 15 -6 8 -33 25 -61 38 -27 13 -54 26 -59 28 -5 3 -5 -2
-1 -9 5 -8 4 -11 -1 -6 -5 5 -9 14 -9 20 0 5 -6 12 -14 15 -9 3 -11 0 -6 -9 5
-8 -1 -5 -13 5 -26 23 -29 34 -4 15 9 -7 6 -1 -7 14 -25 27 -48 37 -35 15 4
-8 3 -10 -2 -5 -5 5 -9 14 -9 19 0 6 -6 13 -14 16 -9 3 -11 0 -6 -8 5 -9 4
-11 -4 -6 -6 4 -9 11 -6 16 3 5 -17 21 -44 35 -57 28 -74 32 -45 10 18 -14 17
-15 -8 -4 -15 7 -25 15 -23 20 6 8 -80 39 -104 38 -9 0 2 -7 24 -15 27 -9 30
-12 10 -8 -16 4 -73 14 -125 23 -131 24 -94 31 162 31 l208 0 2 283 3 282 25
2 c23 2 23 2 5 -6 -17 -8 -18 -10 -2 -10 16 -1 17 -19 17 -230 0 -253 1 -255
64 -257 17 0 40 -4 51 -8 17 -7 17 -6 5 4 -12 10 -11 11 10 6 14 -3 32 -6 40
-7 8 0 4 -5 -10 -9 -17 -6 -19 -8 -7 -9 26 -1 89 27 83 37 -3 5 4 18 17 28
l22 19 -19 -22 c-11 -13 -15 -23 -10 -23 20 0 31 39 31 112 0 72 -2 79 -28
104 -29 28 -29 28 -29 151 0 92 3 123 13 123 8 0 7 4 -3 11 -12 9 -12 10 3 5
10 -3 24 -6 30 -6 8 0 7 -3 -1 -9 -20 -12 179 -5 211 8 39 15 49 12 12 -4 -16
-8 -24 -14 -17 -15 20 0 107 47 123 67 13 17 13 17 -6 3 -11 -8 -4 3 14 23 19
20 37 37 40 37 2 0 -6 -11 -19 -25 -13 -14 -18 -25 -12 -25 6 0 18 10 26 22
13 18 15 63 15 262 0 172 -4 245 -12 256 -28 35 -90 81 -103 76 -8 -3 -13 0
-11 6 1 7 -6 14 -17 16 -10 2 -16 0 -12 -6 4 -6 -2 -8 -15 -5 -11 3 -16 9 -11
12 6 3 -43 5 -109 5 -74 -1 -124 -6 -133 -13 -10 -8 -16 -9 -21 -1 -3 5 -13
10 -21 10 -8 0 -13 -4 -10 -9 4 -5 -3 -7 -15 -4 -16 4 -17 8 -7 14 14 9 -150
4 -185 -6 -17 -5 -19 -4 -7 4 11 8 -87 11 -332 11 l-348 0 0 -729z m1010 715
c0 -2 -9 -6 -20 -9 -11 -3 -18 -1 -14 4 5 9 34 13 34 5z m320 -81 c19 -19 32
-35 29 -35 -3 0 -20 16 -39 35 -19 19 -32 35 -29 35 3 0 20 -16 39 -35z m-213
-150 c-3 11 -8 28 -12 38 -5 12 -2 17 11 18 14 1 13 3 -6 9 -23 7 -24 8 -3 9
12 1 26 -5 30 -12 4 -7 20 -20 35 -30 37 -23 58 -67 67 -140 7 -50 9 -55 10
-22 2 66 -18 117 -62 159 -22 21 -31 34 -20 28 108 -58 124 -246 28 -332 -16
-14 -25 -19 -21 -12 4 6 5 12 3 12 -16 0 -64 -27 -63 -35 1 -5 -8 -11 -19 -13
-16 -3 -17 -1 -5 7 13 10 8 15 -12 12 -4 0 3 21 15 47 27 59 30 195 5 257 -28
72 -29 81 -2 30 14 -27 24 -41 21 -30z m-397 -136 c-1 -165 -4 -190 -17 -185
-8 3 -20 6 -26 6 -7 0 -6 4 3 10 10 6 11 10 3 10 -19 0 -19 336 0 343 37 16
38 12 37 -184z m17 -81 c-1 -51 -3 -10 -3 92 0 102 2 143 3 93 2 -51 2 -135 0
-185z m190 150 c-3 -7 -5 -2 -5 12 0 14 2 19 5 13 2 -7 2 -19 0 -25z m0 -130
c-3 -7 -5 -2 -5 12 0 14 2 19 5 13 2 -7 2 -19 0 -25z m0 -455 c-2 -37 -3 -9
-3 62 0 72 1 102 3 68 2 -34 2 -93 0 -130z m-190 -106 c-1 -45 -3 -5 -3 88 0
94 2 130 3 82 2 -48 2 -125 0 -170z m238 -7 c10 -11 16 -20 13 -20 -3 0 -13 9
-23 20 -10 11 -16 20 -13 20 3 0 13 -9 23 -20z m-222 -200 c11 -13 10 -13 -5
-1 -13 9 -17 26 -16 55 l1 41 4 -40 c3 -22 10 -47 16 -55z m182 -10 c-3 -5
-12 -10 -18 -10 -7 0 -6 4 3 10 19 12 23 12 15 0z m-360 -180 c3 -6 -1 -7 -9
-4 -18 7 -21 14 -7 14 6 0 13 -4 16 -10z m708 -117 c-7 -2 -19 -2 -25 0 -7 3
-2 5 12 5 14 0 19 -2 13 -5z m57 -53 c25 -48 25 -74 3 -91 -15 -11 -16 -11 -5
1 18 21 15 50 -13 98 -13 23 -20 40 -14 37 5 -4 18 -24 29 -45z m-531 14 c14
-12 -19 -1 -35 12 -18 14 -18 14 6 3 14 -6 27 -13 29 -15z m406 16 c-3 -5 -12
-10 -18 -10 -7 0 -6 4 3 10 19 12 23 12 15 0z m-370 -30 c3 -6 -1 -7 -9 -4
-18 7 -21 14 -7 14 6 0 13 -4 16 -10z m-75 -165 c0 -3 -18 4 -40 15 -22 11
-40 23 -40 25 0 3 18 -4 40 -15 22 -11 40 -23 40 -25z m480 25 c-8 -5 -19 -10
-25 -10 -5 0 -3 5 5 10 8 5 20 10 25 10 6 0 3 -5 -5 -10z"/>
<path d="M1128 1420 c2 -41 6 -77 8 -79 7 -8 2 104 -6 129 -4 14 -5 -8 -2 -50z"/>
<path d="M1231 1329 c-1 -9 -13 -34 -27 -55 -15 -21 -19 -32 -10 -24 23 18 48
69 42 83 -2 7 -5 5 -5 -4z"/>
<path d="M1112 1289 c-7 -24 -15 -51 -17 -59 -3 -8 4 4 16 28 11 24 19 50 17
59 -2 9 -9 -4 -16 -28z"/>
<path d="M1304 940 l-61 -107 61 -88 61 -89 3 96 c1 53 1 142 0 196 l-3 99
-61 -107z"/>
<path d="M1018 1023 c7 -3 16 -2 19 1 4 3 -2 6 -13 5 -11 0 -14 -3 -6 -6z"/>
<path d="M1138 1023 c6 -2 18 -2 25 0 6 3 1 5 -13 5 -14 0 -19 -2 -12 -5z"/>
<path d="M1068 1013 c12 -2 30 -2 40 0 9 3 -1 5 -23 4 -22 0 -30 -2 -17 -4z"/>
<path d="M283 453 c9 -2 25 -2 35 0 9 3 1 5 -18 5 -19 0 -27 -2 -17 -5z"/>
<path d="M348 443 c7 -3 16 -2 19 1 4 3 -2 6 -13 5 -11 0 -14 -3 -6 -6z"/>
<path d="M0 282 c0 -18 36 -23 140 -20 l95 4 -105 2 c-67 1 -110 6 -118 14 -9
9 -12 9 -12 0z"/>
<path d="M263 253 c9 -2 23 -2 30 0 6 3 -1 5 -18 5 -16 0 -22 -2 -12 -5z"/>
<path d="M323 243 c9 -2 23 -2 30 0 6 3 -1 5 -18 5 -16 0 -22 -2 -12 -5z"/>
<path d="M878 183 c6 -2 18 -2 25 0 6 3 1 5 -13 5 -14 0 -19 -2 -12 -5z"/>
</g>
</svg>
