<?xml version="1.0" standalone="no"?>
<!DOCTYPE svg PUBLIC "-//W3C//DTD SVG 20010904//EN"
 "http://www.w3.org/TR/2001/REC-SVG-20010904/DTD/svg10.dtd">
<svg version="1.0" xmlns="http://www.w3.org/2000/svg"
 width="2139.000000pt" height="615.000000pt" viewBox="0 0 2139.000000 615.000000"
 preserveAspectRatio="xMidYMid meet">
<metadata>
Created by potrace 1.16, written by Peter Selinger 2001-2019
</metadata>
<g transform="translate(0.000000,615.000000) scale(0.100000,-0.100000)"
fill="#b45247" stroke="none">
<path d="M7910 6143 c-380 -12 -6440 -255 -6460 -258 -14 -2 -56 -9 -95 -16
-99 -16 -275 -74 -380 -124 -155 -74 -269 -157 -406 -294 -217 -218 -346 -448
-410 -731 -10 -47 -51 -382 -90 -745 -63 -591 -70 -675 -66 -800 6 -156 24
-264 69 -405 201 -633 824 -1068 1482 -1037 97 4 733 111 3191 536 1689 292
3124 540 3189 551 514 88 1205 167 1776 205 808 52 1759 45 2550 -20 2958
-243 5741 -1197 8233 -2821 220 -144 269 -165 389 -172 142 -7 256 37 360 141
174 174 187 464 30 639 -39 44 -720 660 -982 889 -1407 1228 -2976 2219 -4705
2971 -1473 640 -3069 1091 -4665 1317 -556 79 -1088 129 -1715 161 -211 11
-1100 20 -1295 13z m1265 -518 c2151 -102 4166 -563 6145 -1407 368 -157 1003
-460 1308 -624 1152 -621 2077 -1243 3037 -2043 246 -205 945 -824 945 -837 0
-2 -37 19 -82 48 -2023 1275 -4248 2131 -6601 2539 -1973 341 -3987 353 -5962
34 -88 -14 -1514 -260 -3170 -546 -1655 -286 -3050 -527 -3100 -535 -337 -58
-646 32 -881 258 -229 220 -336 509 -304 825 62 624 133 1241 150 1308 43 169
149 345 285 473 171 161 385 255 615 269 52 3 1481 61 3175 128 2853 114 3119
123 3605 124 330 0 640 -5 835 -14z"/>
</g>
</svg>
