<?xml version="1.0" standalone="no"?>
<!DOCTYPE svg PUBLIC "-//W3C//DTD SVG 20010904//EN"
 "http://www.w3.org/TR/2001/REC-SVG-20010904/DTD/svg10.dtd">
<svg version="1.0" xmlns="http://www.w3.org/2000/svg"
 width="2440.000000pt" height="970.000000pt" viewBox="0 0 2440.000000 970.000000"
 preserveAspectRatio="xMidYMid meet">
<metadata>
Created by potrace 1.16, written by Peter Selinger 2001-2019
</metadata>
<g transform="translate(0.000000,970.000000) scale(0.100000,-0.100000)"
fill="#b45247" stroke="none">
<path d="M20405 9693 c-76 -16 -96 -32 -305 -237 -1027 -1007 -2342 -1850
-3765 -2411 -1751 -691 -3616 -921 -5515 -679 -1656 210 -3271 795 -4680 1692
-576 367 -1130 799 -1556 1214 -95 93 -188 175 -206 182 -161 66 -326 -28
-353 -201 -4 -28 -1 -62 10 -100 16 -54 28 -69 188 -230 l170 -173 -34 -14
c-19 -8 -981 -426 -2139 -930 -2091 -909 -2105 -916 -2150 -964 -115 -123 -86
-306 62 -388 44 -24 64 -29 118 -28 63 1 97 15 1253 518 654 284 1196 520
1205 523 9 3 -455 -338 -1033 -758 -1164 -847 -1104 -798 -1113 -919 -8 -112
48 -208 147 -252 53 -24 141 -26 192 -4 20 8 490 345 1045 748 555 404 1025
745 1044 758 l35 24 -40 -45 c-22 -25 -409 -463 -860 -973 -542 -612 -828
-943 -842 -974 -46 -95 -26 -200 53 -279 77 -78 180 -96 280 -49 46 21 200
192 1615 1792 860 973 1576 1782 1590 1798 l26 30 109 -86 c60 -46 153 -118
207 -158 63 -47 96 -78 93 -87 -3 -7 -684 -906 -1513 -1996 -829 -1090 -1516
-2000 -1527 -2022 -44 -91 -15 -220 67 -290 39 -34 117 -65 162 -65 46 0 128
33 163 65 20 19 719 932 1552 2029 833 1097 1518 1995 1522 1995 10 1 222
-139 226 -149 1 -4 -633 -954 -1409 -2111 -776 -1157 -1421 -2124 -1432 -2149
-73 -158 51 -350 226 -350 65 0 117 21 168 70 33 31 495 712 1459 2150 777
1158 1415 2111 1419 2118 6 10 56 -13 202 -93 107 -59 296 -157 421 -219 l228
-113 -1542 -2144 c-847 -1179 -1549 -2162 -1559 -2184 -38 -82 -16 -199 49
-269 93 -99 273 -99 363 0 15 16 372 511 794 1099 423 589 772 1075 777 1080
5 6 -22 -55 -60 -135 -980 -2064 -1086 -2294 -1090 -2352 -6 -76 18 -138 73
-193 97 -98 253 -98 349 -1 35 35 130 229 631 1288 324 686 591 1246 592 1244
1 -1 -158 -611 -353 -1356 -250 -953 -356 -1371 -356 -1410 -1 -94 49 -176
137 -223 53 -28 164 -30 216 -4 49 24 102 79 123 125 12 27 1240 4704 1353
5149 l15 62 37 -15 c120 -52 461 -179 677 -253 l251 -86 -790 -2585 c-840
-2748 -811 -2646 -775 -2731 22 -50 74 -106 122 -132 57 -30 165 -30 221 0 46
25 97 75 117 118 8 17 367 1187 798 2600 431 1414 786 2574 791 2578 6 8 274
-54 285 -66 2 -2 -253 -1220 -567 -2708 -316 -1500 -570 -2727 -570 -2755 -1
-93 51 -177 134 -219 127 -63 290 -5 344 122 9 23 1034 4857 1150 5426 5 24
10 27 28 23 114 -29 773 -131 985 -154 66 -6 75 -10 73 -27 -1 -11 -281 -1221
-623 -2690 -341 -1469 -623 -2686 -626 -2706 -8 -50 19 -136 57 -183 110 -133
346 -106 416 46 11 24 172 699 359 1500 186 802 339 1456 341 1455 1 -2 -25
-676 -58 -1498 -48 -1174 -58 -1504 -50 -1537 37 -134 184 -211 325 -170 53
16 137 99 154 153 9 28 32 485 72 1475 33 789 60 1467 61 1505 0 39 2 66 5 60
2 -5 100 -667 219 -1470 118 -803 221 -1482 230 -1510 39 -132 177 -203 319
-164 48 13 123 82 147 134 11 24 19 64 19 97 0 32 -180 1275 -401 2764 -220
1488 -399 2707 -397 2709 2 2 86 -2 188 -7 102 -5 393 -8 648 -6 l462 4 0 -32
c0 -18 79 -1273 175 -2791 l175 -2758 28 -55 c86 -172 321 -187 429 -27 17 26
35 68 39 92 3 26 -68 1222 -170 2826 -97 1530 -175 2783 -174 2784 4 4 272 35
274 32 1 -1 175 -1249 387 -2774 308 -2214 390 -2779 405 -2810 11 -21 38 -54
59 -74 154 -146 413 -37 415 175 1 28 -171 1288 -382 2799 -210 1511 -380
2750 -377 2753 3 3 90 21 194 40 181 33 481 98 688 148 55 13 101 24 101 23 1
-1 81 -1251 179 -2777 97 -1526 181 -2791 186 -2812 16 -64 69 -129 129 -161
48 -25 63 -28 126 -25 58 3 80 9 120 33 53 33 100 100 114 160 6 25 -23 525
-86 1504 -52 806 -93 1479 -92 1496 2 16 169 -616 372 -1405 202 -789 375
-1450 384 -1469 19 -41 71 -95 114 -117 17 -9 57 -19 88 -21 83 -8 147 16 203
76 51 55 71 105 70 176 -1 30 -153 635 -372 1485 -203 789 -369 1435 -368
1437 2 1 288 -606 637 -1350 578 -1231 639 -1356 681 -1399 34 -33 61 -51 100
-62 66 -20 82 -20 148 0 146 43 216 209 149 354 -13 30 -550 1172 -1192 2538
-642 1366 -1166 2485 -1164 2487 2 2 82 29 178 61 96 31 255 85 352 120 97 35
179 64 181 64 3 0 589 -1105 1303 -2456 864 -1633 1310 -2468 1333 -2491 131
-136 364 -78 417 102 20 71 14 131 -22 200 -14 28 -595 1127 -1292 2444 -696
1317 -1262 2396 -1257 2398 6 2 74 32 152 67 l142 63 1402 -2349 c771 -1292
1410 -2359 1419 -2371 26 -33 111 -76 162 -83 173 -24 323 161 266 327 -6 19
-637 1082 -1401 2362 -764 1281 -1385 2333 -1381 2337 5 5 70 41 144 80 74 40
199 108 278 152 79 45 147 77 151 72 4 -5 637 -1033 1406 -2284 768 -1251
1414 -2292 1434 -2314 48 -51 103 -76 170 -76 115 0 203 57 240 156 24 64 26
104 7 165 -7 24 -317 538 -689 1142 -372 603 -672 1095 -667 1092 5 -3 387
-430 850 -949 664 -744 850 -947 884 -964 62 -31 123 -37 187 -18 146 42 220
204 155 341 -17 36 -301 362 -991 1135 -1104 1238 -1011 1132 -965 1099 19
-14 559 -412 1199 -884 640 -472 1182 -868 1205 -881 119 -68 277 -18 340 108
46 91 32 200 -34 272 -21 23 -988 741 -2149 1596 -1160 855 -2110 1558 -2110
1561 -1 3 70 53 157 111 86 58 215 147 285 197 70 50 130 91 133 91 3 0 926
-714 2052 -1587 2201 -1707 2100 -1633 2199 -1618 145 21 229 123 221 265 -7
128 148 -1 -2053 1706 -1094 848 -1991 1547 -1992 1551 -2 5 57 60 132 122
l135 112 2047 -1369 c1127 -753 2063 -1374 2082 -1380 125 -43 279 35 316 160
18 61 19 89 4 143 -28 99 63 35 -2061 1455 -1096 733 -1995 1334 -1997 1336
-3 3 68 77 156 167 88 89 169 178 179 197 25 48 26 171 1 221 -25 50 -75 99
-122 119 -44 19 -109 30 -140 23z"/>
</g>
</svg>
