<?xml version="1.0" standalone="no"?>
<!DOCTYPE svg PUBLIC "-//W3C//DTD SVG 20010904//EN"
 "http://www.w3.org/TR/2001/REC-SVG-20010904/DTD/svg10.dtd">
<svg version="1.0" xmlns="http://www.w3.org/2000/svg"
 width="3569.000000pt" height="2697.000000pt" viewBox="0 0 3569.000000 2697.000000"
 preserveAspectRatio="xMidYMid meet">
<metadata>
Created by potrace 1.16, written by Peter Selinger 2001-2019
</metadata>
<g transform="translate(0.000000,2697.000000) scale(0.100000,-0.100000)"
fill="#b45247" stroke="none">
<path d="M32021 26933 c-144 -549 -1628 -6489 -1622 -6493 5 -3 305 -70 668
-149 362 -79 662 -147 666 -151 5 -4 -143 -695 -329 -1536 -263 -1193 -338
-1549 -341 -1619 -6 -108 14 -210 57 -303 16 -35 30 -70 30 -76 0 -27 -137
-488 -210 -706 -300 -899 -663 -1529 -1020 -1770 -202 -136 -328 -272 -375
-405 -29 -80 -25 -186 9 -262 33 -73 116 -157 192 -196 124 -62 326 -105 634
-132 274 -25 327 -33 389 -65 31 -15 94 -40 141 -55 71 -23 103 -28 195 -28
95 -1 121 3 188 26 188 65 328 206 439 443 142 303 241 833 278 1479 6 105 15
429 20 720 6 292 15 575 20 630 8 93 11 101 37 120 109 78 201 194 248 312 13
32 175 749 360 1593 186 844 340 1538 344 1541 3 3 307 -61 676 -142 368 -82
670 -147 672 -146 8 9 1300 6593 1295 6599 -4 3 -819 185 -1812 403 -993 218
-1813 398 -1822 401 -13 4 -19 -4 -27 -33z m1758 -864 c723 -159 1315 -290
1317 -292 2 -1 -246 -1265 -550 -2807 -512 -2599 -554 -2805 -572 -2802 -61 9
-2955 650 -2961 655 -5 5 1317 5294 1378 5510 10 36 12 38 42 32 18 -4 623
-137 1346 -296z m-1391 -6128 c73 -16 135 -31 137 -33 3 -2 -144 -681 -326
-1509 -276 -1258 -334 -1509 -354 -1535 -78 -102 -238 -72 -275 52 -11 37 10
138 319 1544 182 828 331 1508 331 1512 0 3 8 4 18 2 9 -2 77 -17 150 -33z
m-868 -4411 c-5 -294 -14 -598 -20 -675 -52 -690 -166 -1175 -311 -1325 -54
-55 -91 -54 -218 4 -112 51 -195 69 -419 91 -252 24 -366 37 -384 44 -14 5 4
22 78 76 449 326 845 1006 1181 2026 54 163 99 296 100 295 0 0 -3 -242 -7
-536z"/>
<path d="M27958 13980 c-84 -13 -154 -40 -553 -212 -444 -192 -581 -255 -905
-417 -906 -454 -1773 -1029 -2555 -1695 -162 -138 -280 -245 -562 -504 -246
-227 -266 -254 -266 -363 -1 -181 200 -303 361 -220 20 10 136 111 257 223
363 334 565 510 845 734 747 598 1643 1152 2500 1547 113 52 365 163 560 248
300 129 364 153 416 157 69 5 120 -15 165 -65 67 -72 74 -136 31 -290 -27 -97
-41 -121 -322 -579 -161 -264 -343 -555 -404 -649 -462 -713 -1024 -1358
-1676 -1922 -221 -191 -526 -435 -630 -505 -195 -129 -469 -246 -666 -284
-109 -20 -318 -18 -430 5 -196 41 -380 140 -529 286 -100 98 -154 172 -214
292 -51 102 -66 149 -107 326 -22 97 -44 169 -65 207 -79 148 -247 240 -414
227 -121 -10 -319 -89 -464 -186 -38 -25 -1224 -968 -2635 -2095 -2502 -1997
-2566 -2049 -2593 -2104 -51 -105 -30 -217 57 -295 77 -69 181 -86 270 -44 19
9 1183 933 2585 2054 1403 1120 2574 2051 2603 2070 30 19 77 45 105 58 l51
24 32 -127 c18 -70 46 -163 64 -207 266 -672 938 -1082 1648 -1004 323 35 731
199 1041 417 107 76 458 363 691 565 297 258 713 682 990 1010 40 48 77 84 81
80 4 -5 15 -55 25 -113 24 -145 15 -374 -20 -512 -28 -111 -85 -239 -150 -336
-68 -102 -368 -461 -690 -825 l-289 -327 -60 0 c-112 0 -323 -84 -483 -192
-106 -72 -7701 -5693 -7738 -5726 -44 -41 -76 -118 -76 -182 0 -194 215 -315
379 -213 25 17 1772 1307 3881 2868 2416 1788 3865 2855 3917 2882 46 25 87
42 92 39 5 -3 12 -27 16 -52 10 -70 59 -227 101 -327 104 -250 311 -505 542
-671 179 -128 425 -228 654 -267 105 -18 150 -20 308 -16 205 6 285 19 480 82
354 114 596 255 975 566 593 487 971 853 1390 1348 l80 94 12 -54 c41 -179 35
-439 -13 -606 -29 -103 -96 -248 -152 -330 -22 -32 -107 -139 -189 -238 -81
-99 -158 -194 -170 -211 -15 -20 -72 -59 -160 -109 -728 -411 -1388 -868
-2008 -1391 -338 -284 -441 -385 -805 -786 l-351 -388 -49 0 c-98 0 -321 -89
-467 -187 -79 -53 -5092 -4051 -5161 -4117 -66 -62 -86 -108 -86 -191 0 -80
20 -129 76 -182 72 -69 186 -87 275 -42 26 13 1187 934 2580 2046 1392 1112
2553 2037 2580 2056 48 35 165 97 181 97 5 0 14 -30 21 -68 30 -163 136 -421
232 -564 116 -173 271 -328 438 -440 209 -140 425 -223 671 -258 122 -18 350
-13 480 9 322 56 693 218 980 429 91 67 404 321 555 451 397 342 804 754 1131
1146 l41 49 12 -52 c74 -346 -2 -760 -205 -1118 -72 -125 -195 -286 -304 -394
-69 -69 -350 -291 -1030 -814 -514 -396 -959 -732 -990 -747 -108 -55 -157
-61 -515 -68 -232 -5 -339 -10 -360 -19 -43 -19 -104 -80 -126 -127 -25 -53
-25 -156 0 -210 25 -55 100 -119 158 -136 36 -10 124 -14 343 -14 320 0 408
10 575 62 174 54 207 78 1139 795 484 373 915 704 956 736 97 74 300 275 380
377 284 361 466 798 502 1209 14 166 4 406 -22 531 -24 116 -75 269 -123 376
l-35 75 30 40 c141 186 889 1380 964 1539 88 184 132 434 105 591 -38 216
-185 416 -380 514 -101 52 -175 71 -296 77 -158 8 -215 -9 -640 -192 -197 -85
-361 -153 -362 -151 -2 2 4 20 13 42 30 71 75 228 91 319 12 63 17 153 17 305
1 185 -2 230 -21 326 -28 134 -72 270 -124 383 l-39 85 40 55 c178 249 898
1398 960 1536 16 33 45 121 66 195 36 124 39 145 39 260 0 145 -16 212 -76
330 -89 173 -243 302 -433 362 -97 31 -272 36 -371 10 -85 -21 -758 -308
-1085 -462 -735 -345 -1457 -773 -2115 -1253 -82 -60 -156 -115 -164 -121 -12
-9 -13 6 -7 104 15 265 -34 532 -146 788 l-40 92 47 68 c138 197 365 551 640
1000 325 532 331 543 391 767 78 297 -12 588 -240 771 -155 125 -369 184 -558
154z m3507 -2401 c61 -17 130 -93 145 -161 11 -48 10 -63 -15 -158 -15 -58
-34 -118 -43 -135 -35 -70 -626 -1027 -747 -1210 -374 -563 -818 -1091 -1300
-1544 -303 -286 -761 -671 -940 -792 -204 -137 -511 -264 -717 -295 -392 -60
-789 100 -1027 416 -108 143 -169 288 -212 497 -21 102 -21 114 -7 130 388
445 658 745 726 807 627 569 1377 1115 2122 1543 312 179 766 413 1075 552
185 83 783 341 815 351 36 12 79 11 125 -1z m638 -3880 c79 -22 156 -120 157
-200 0 -19 -14 -84 -31 -144 -30 -108 -34 -116 -346 -625 -174 -283 -378 -607
-454 -720 -455 -680 -950 -1241 -1589 -1801 -90 -79 -451 -376 -535 -440 -201
-154 -454 -277 -712 -346 -88 -23 -116 -26 -268 -26 -152 0 -180 2 -270 26
-198 53 -408 181 -537 328 -77 87 -161 224 -199 322 -17 45 -46 146 -64 226
l-33 145 132 146 c72 80 223 245 333 367 206 226 299 317 548 529 908 775
1947 1429 3030 1907 160 70 692 298 725 310 25 9 73 7 113 -4z"/>
</g>
</svg>
