<?xml version="1.0" standalone="no"?>
<!DOCTYPE svg PUBLIC "-//W3C//DTD SVG 20010904//EN"
 "http://www.w3.org/TR/2001/REC-SVG-20010904/DTD/svg10.dtd">
<svg version="1.0" xmlns="http://www.w3.org/2000/svg"
 width="2848.000000pt" height="2506.000000pt" viewBox="0 0 2848.000000 2506.000000"
 preserveAspectRatio="xMidYMid meet">
<metadata>
Created by potrace 1.16, written by Peter Selinger 2001-2019
</metadata>
<g transform="translate(0.000000,2506.000000) scale(0.100000,-0.100000)"
fill="#cc947f" stroke="none">
<path d="M7646 25044 c-179 -32 -411 -130 -543 -228 -37 -28 -188 -169 -334
-314 l-266 -262 -112 100 c-61 55 -115 100 -119 100 -21 0 -186 -32 -275 -54
-600 -145 -1360 -500 -2018 -942 -1265 -849 -2447 -2163 -3120 -3469 -398
-773 -648 -1632 -649 -2227 l0 -117 110 -97 110 -98 -17 -25 c-204 -311 -348
-640 -393 -905 -54 -318 2 -579 175 -821 233 -324 541 -505 928 -545 192 -20
239 -11 837 165 2028 595 3857 1111 4649 1310 425 108 552 129 615 105 40 -15
36 -72 -11 -151 -80 -138 -176 -401 -188 -519 -12 -121 29 -242 113 -333 39
-42 139 -117 172 -129 4 -2 45 -199 90 -438 45 -239 84 -446 87 -459 4 -18
776 -601 2927 -2213 l2921 -2189 2708 -2767 c1490 -1522 2766 -2825 2837
-2896 l128 -129 460 115 460 115 48 -50 c90 -92 214 -130 359 -109 46 7 102
19 126 27 l42 15 -6 -182 c-3 -101 -13 -239 -22 -308 -66 -523 -211 -1243
-400 -1998 -73 -290 -114 -440 -217 -792 -47 -163 -58 -333 -32 -509 38 -259
184 -570 359 -769 l47 -52 758 0 759 0 63 51 c35 29 86 75 115 102 l52 50 65
-56 64 -57 79 11 c365 50 881 272 1360 586 758 497 1545 1333 2063 2193 90
149 266 500 333 664 149 363 238 707 254 978 l6 107 -49 44 c-27 24 -62 55
-77 68 l-28 24 83 96 c140 159 234 304 343 532 131 273 160 465 104 707 -41
176 -172 386 -315 504 -267 220 -603 356 -921 373 -224 11 -364 -20 -668 -149
-650 -276 -1697 -641 -2330 -811 -269 -73 -585 -137 -673 -137 l-33 0 8 63
c26 206 -26 366 -148 454 -43 31 -50 40 -46 62 3 14 31 225 63 469 49 381 55
445 43 457 -8 7 -1447 1128 -3199 2490 l-3184 2475 -2444 2588 c-1344 1423
-2474 2618 -2512 2657 l-69 69 -443 17 c-244 10 -456 18 -473 19 -27 0 -33 7
-55 58 -34 81 -127 172 -205 202 -33 12 -89 25 -125 27 -155 12 -412 -98 -627
-269 l-62 -49 -47 13 c-130 36 -125 107 72 1048 173 823 489 2242 818 3675 63
275 122 541 131 590 114 650 -74 1374 -434 1672 -382 316 -721 437 -1055 377z
m326 -413 c119 -31 259 -109 415 -233 153 -121 237 -257 306 -498 61 -211 83
-514 54 -746 -9 -67 -80 -401 -161 -755 -512 -2234 -854 -3805 -941 -4320 -60
-354 -10 -555 172 -698 24 -19 42 -38 41 -42 -2 -4 -72 -86 -157 -183 l-155
-175 -37 34 c-130 117 -320 147 -584 91 -621 -132 -2789 -735 -5280 -1471
-334 -98 -399 -108 -552 -81 -239 41 -434 170 -572 376 -84 126 -103 181 -109
318 -6 137 8 229 56 377 37 113 156 361 229 474 l41 63 98 -88 c55 -49 108
-97 119 -106 19 -16 26 -16 117 2 467 90 1151 377 1738 728 1420 850 2755
2303 3538 3849 274 542 468 1046 602 1568 54 211 85 369 104 522 l12 102 -127
112 c-100 87 -126 116 -119 128 11 21 398 401 480 472 190 164 456 235 672
180z m-1589 -828 c122 -109 228 -203 236 -209 20 -16 6 -102 -59 -359 -443
-1745 -1749 -3605 -3357 -4784 -649 -475 -1377 -852 -1985 -1026 l-127 -36
-236 211 c-271 244 -246 193 -215 433 67 522 247 1077 541 1667 165 329 280
528 484 835 942 1421 2332 2623 3715 3210 254 108 686 253 758 255 17 0 88
-57 245 -197z m2446 -6260 c6 -21 11 -82 11 -135 l0 -97 33 -5 c17 -3 250 -12
517 -21 267 -8 509 -18 538 -21 l53 -6 2461 -2605 2462 -2606 3100 -2410
c1706 -1325 3109 -2417 3119 -2426 16 -16 14 -39 -43 -473 -33 -252 -71 -519
-84 -595 -13 -76 -23 -139 -21 -141 1 -2 57 11 123 28 163 41 156 41 148 -22
-8 -61 -11 -65 -29 -50 -11 10 -99 -83 -443 -469 -236 -265 -428 -487 -426
-495 3 -12 -63 -32 -73 -22 -3 3 2 56 10 118 8 63 15 121 15 130 0 14 -90 -5
-577 -126 -318 -79 -581 -144 -585 -144 -4 0 -1251 1270 -2770 2822 l-2763
2822 -2872 2152 -2871 2152 -11 54 c-6 29 -49 257 -96 507 -47 250 -86 456
-88 457 -1 1 -40 9 -85 18 -100 18 -146 42 -150 77 -4 34 49 182 109 305 48
98 64 118 445 550 401 456 440 498 529 564 85 63 252 149 292 150 7 0 17 -17
22 -37z m16621 -10989 c295 -56 594 -244 690 -435 93 -183 81 -327 -49 -583
-94 -187 -166 -298 -266 -410 -88 -99 -68 -100 -189 8 l-67 59 -120 -32 c-242
-63 -554 -188 -864 -346 -828 -420 -1569 -1039 -2125 -1775 -332 -440 -595
-932 -756 -1415 -108 -326 -184 -716 -184 -950 l0 -62 74 -64 c41 -35 75 -69
75 -75 2 -31 -328 -273 -468 -344 -170 -86 -355 -81 -516 15 -174 104 -371
391 -437 635 -31 116 -32 341 -1 440 198 633 450 1707 568 2424 112 675 123
1057 35 1238 -11 23 -20 46 -20 51 0 7 412 477 499 569 15 16 20 16 76 -4 164
-56 454 -25 950 102 646 165 1798 562 2479 855 161 68 239 95 316 108 61 10
225 6 300 -9z m172 -1951 l153 -138 -2 -51 c-5 -134 -110 -491 -223 -754 -416
-973 -1308 -2026 -2230 -2633 -340 -223 -693 -394 -994 -481 l-89 -26 -36 32
c-20 17 -88 78 -152 135 -108 96 -115 105 -112 136 76 647 380 1354 851 1977
162 213 297 367 516 585 360 359 694 619 1136 884 152 92 470 255 635 327 120
52 363 143 382 144 7 0 81 -62 165 -137z"/>
<path d="M18820 23929 c-1225 -105 -2321 -750 -3007 -1769 -485 -722 -727
-1636 -663 -2515 90 -1233 729 -2341 1750 -3034 542 -368 1142 -588 1815 -667
210 -25 673 -25 875 0 420 51 823 159 1177 314 39 18 73 32 76 32 3 0 40 -64
82 -142 273 -503 616 -912 1060 -1264 361 -286 803 -520 1250 -663 574 -184
1185 -237 1780 -155 1013 139 1941 665 2577 1459 394 492 661 1054 792 1670
65 303 89 531 89 845 -1 870 -278 1710 -789 2393 -133 177 -212 267 -393 448
-315 313 -635 546 -1021 739 -1054 528 -2273 570 -3364 115 -76 -31 -139 -55
-140 -53 -2 1 -36 62 -75 135 -212 395 -459 719 -778 1022 -672 637 -1514
1012 -2448 1091 -139 11 -506 11 -645 -1z m710 -304 c749 -83 1397 -352 1975
-819 150 -122 420 -394 541 -546 161 -202 309 -432 415 -641 l39 -79 -46 -28
c-26 -15 -120 -75 -210 -134 -90 -60 -165 -108 -167 -108 -3 0 -15 24 -27 53
-36 83 -156 293 -234 407 -213 314 -504 611 -809 826 -767 541 -1736 722
-2641 493 -383 -97 -762 -270 -1071 -491 -287 -205 -568 -485 -768 -766 -287
-403 -479 -884 -559 -1397 -26 -168 -36 -578 -19 -762 91 -971 612 -1841 1424
-2381 396 -263 829 -428 1322 -504 168 -26 560 -36 742 -19 348 33 687 120
1006 258 70 30 130 53 132 51 3 -2 20 -59 40 -126 19 -67 53 -171 74 -232 l40
-110 -38 -20 c-63 -32 -279 -115 -396 -153 -349 -112 -670 -165 -1060 -174
-254 -6 -410 3 -644 38 -902 132 -1732 605 -2317 1319 -475 580 -754 1270
-825 2043 -15 168 -7 601 15 767 98 735 371 1362 840 1930 93 113 350 370 456
456 599 490 1236 761 1995 848 168 19 605 20 775 1z m-6 -800 c972 -129 1794
-712 2233 -1584 l83 -163 -151 -146 c-223 -216 -408 -434 -554 -654 l-57 -87
-77 5 c-71 5 -93 1 -346 -66 -148 -39 -280 -78 -293 -86 -44 -29 -63 -73 -59
-138 6 -91 28 -107 272 -190 110 -38 202 -70 204 -72 2 -2 -12 -46 -32 -97
-76 -194 -156 -446 -188 -592 -7 -33 -13 -61 -14 -63 -1 -1 -87 48 -191 109
-240 142 -284 163 -327 154 -84 -19 -127 -68 -127 -147 0 -39 20 -87 129 -311
110 -225 135 -269 172 -300 55 -47 134 -77 206 -77 l56 0 -6 -128 c-8 -167 8
-489 33 -688 11 -86 19 -158 17 -160 -1 -2 -51 -26 -111 -53 -693 -324 -1487
-366 -2206 -115 -709 246 -1298 760 -1640 1429 -318 622 -400 1355 -229 2040
251 1004 1023 1803 2018 2090 187 54 384 88 621 109 94 8 450 -4 564 -19z
m5356 -1095 c660 -81 1249 -309 1765 -684 159 -115 279 -219 445 -385 309
-309 512 -591 704 -977 373 -749 479 -1628 296 -2451 -206 -927 -753 -1734
-1535 -2266 -524 -356 -1090 -559 -1745 -627 -153 -16 -564 -13 -728 5 -872
96 -1628 455 -2243 1065 -962 956 -1321 2377 -933 3695 132 449 365 888 678
1281 105 131 413 437 551 547 378 301 802 525 1258 663 201 61 520 122 752
143 124 12 620 6 735 -9z"/>
<path d="M19099 22061 c-46 -15 -74 -33 -122 -79 -56 -55 -87 -128 -87 -208 0
-61 131 -573 156 -612 24 -37 74 -62 124 -62 50 0 100 25 124 62 8 13 54 138
102 278 97 283 108 342 79 429 -20 61 -91 143 -149 173 -45 23 -179 35 -227
19z"/>
<path d="M17773 21549 c-64 -25 -131 -88 -163 -154 -36 -75 -35 -180 3 -257
16 -32 45 -72 67 -90 46 -40 469 -288 521 -306 51 -18 105 -2 149 42 27 29 34
45 37 88 4 51 -1 63 -117 298 -66 135 -132 262 -146 282 -72 103 -225 145
-351 97z"/>
<path d="M20388 21496 c-56 -16 -103 -44 -140 -83 -40 -42 -309 -509 -315
-547 -8 -49 26 -118 71 -146 67 -41 108 -29 389 110 265 132 306 161 346 243
92 189 -38 412 -250 431 -31 3 -74 -1 -101 -8z"/>
<path d="M17217 20276 c-121 -44 -200 -156 -200 -286 0 -89 30 -156 99 -219
60 -55 123 -81 198 -81 60 0 561 130 609 157 85 49 88 193 5 247 -13 8 -142
56 -287 105 -284 98 -338 107 -424 77z"/>
<path d="M17912 19068 c-139 -68 -270 -137 -290 -154 -56 -47 -94 -124 -100
-203 -5 -80 8 -132 49 -194 41 -62 102 -103 184 -124 61 -17 69 -17 130 0 84
22 144 63 187 129 64 98 262 443 274 479 18 50 3 104 -40 147 -29 30 -43 36
-88 39 -51 4 -64 -1 -306 -119z"/>
<path d="M19045 18771 c-16 -10 -37 -27 -46 -37 -9 -10 -58 -140 -108 -289
-78 -227 -92 -280 -92 -333 0 -203 205 -344 404 -276 102 35 185 145 194 259
4 51 -5 98 -66 327 -39 147 -77 281 -86 298 -34 65 -135 91 -200 51z"/>
<path d="M24150 21239 c-753 -82 -1427 -399 -1945 -914 -507 -504 -810 -1106
-924 -1835 -47 -304 -37 -738 25 -1055 129 -660 451 -1254 925 -1709 529 -507
1172 -806 1909 -887 146 -16 500 -16 648 0 408 43 811 164 1166 349 907 473
1540 1363 1690 2379 38 256 45 581 16 828 -107 929 -594 1747 -1356 2281 -407
284 -865 464 -1389 546 -149 23 -615 34 -765 17z m495 -290 c880 -59 1637
-470 2167 -1176 284 -378 471 -838 545 -1338 25 -172 25 -621 0 -790 -69 -463
-217 -852 -462 -1220 -126 -189 -205 -285 -365 -446 -469 -472 -1056 -757
-1730 -841 -59 -7 -206 -13 -335 -13 -244 0 -358 11 -568 51 -873 169 -1638
749 -2039 1548 -156 310 -252 635 -293 996 -21 181 -16 567 10 730 102 653
375 1198 825 1650 499 501 1161 802 1872 849 167 12 208 12 373 0z"/>
<path d="M24391 20158 c-65 -25 -135 -91 -163 -154 -40 -92 -37 -124 41 -423
40 -151 79 -287 87 -302 29 -56 100 -86 165 -69 74 20 88 45 189 337 79 229
93 278 93 333 1 89 -30 156 -100 220 -87 80 -201 101 -312 58z"/>
<path d="M23102 19662 c-63 -23 -117 -64 -154 -118 -35 -52 -48 -98 -48 -176
0 -52 6 -77 31 -126 17 -34 46 -74 65 -90 18 -15 141 -91 271 -168 223 -130
241 -139 290 -139 85 0 147 60 146 142 0 40 -20 89 -125 304 -136 278 -167
322 -256 361 -67 29 -155 33 -220 10z"/>
<path d="M25672 19593 c-81 -28 -131 -90 -278 -343 -108 -186 -138 -245 -142
-281 -6 -59 18 -111 65 -140 68 -42 94 -36 368 96 217 105 256 127 305 175 67
65 90 122 90 219 0 116 -66 217 -174 267 -61 28 -165 31 -234 7z"/>
<path d="M22533 18382 c-158 -56 -237 -215 -188 -379 18 -59 89 -144 144 -173
52 -26 132 -39 188 -29 76 12 546 139 563 152 77 58 87 168 20 232 -19 18
-104 52 -291 117 -295 102 -347 111 -436 80z"/>
<path d="M26210 18300 c-440 -114 -523 -139 -551 -166 -73 -70 -58 -194 29
-238 15 -7 142 -53 282 -102 221 -76 264 -88 320 -87 261 1 393 318 212 506
-73 76 -195 112 -292 87z"/>
<path d="M23230 17177 c-152 -74 -271 -138 -296 -160 -24 -21 -55 -63 -71 -95
-37 -76 -39 -183 -4 -254 29 -61 89 -120 149 -150 70 -34 188 -33 257 4 78 41
113 87 249 321 172 294 174 302 136 377 -23 45 -81 80 -132 80 -22 0 -119 -42
-288 -123z"/>
<path d="M25279 17237 c-41 -27 -69 -79 -69 -127 0 -41 238 -532 284 -587 15
-17 54 -46 88 -62 50 -25 74 -31 128 -31 94 0 154 23 216 84 68 67 98 144 91
234 -5 71 -41 153 -85 195 -15 15 -140 92 -277 172 -224 131 -253 145 -295
145 -32 0 -58 -7 -81 -23z"/>
<path d="M24375 16891 c-32 -15 -66 -51 -82 -90 -9 -20 -53 -146 -99 -281 -57
-165 -84 -260 -84 -291 0 -150 114 -280 268 -305 126 -20 277 74 318 199 27
83 21 135 -50 407 -72 275 -87 313 -128 343 -29 22 -111 32 -143 18z"/>
</g>
</svg>
