<?xml version="1.0" standalone="no"?>
<!DOCTYPE svg PUBLIC "-//W3C//DTD SVG 20010904//EN"
 "http://www.w3.org/TR/2001/REC-SVG-20010904/DTD/svg10.dtd">
<svg version="1.0" xmlns="http://www.w3.org/2000/svg"
 width="2002.000000pt" height="2457.000000pt" viewBox="0 0 2002.000000 2457.000000"
 preserveAspectRatio="xMidYMid meet">
<metadata>
Created by potrace 1.16, written by Peter Selinger 2001-2019
</metadata>
<g transform="translate(0.000000,2457.000000) scale(0.100000,-0.100000)"
fill="#cc947f" stroke="none">
<path d="M1085 24555 c-339 -60 -629 -235 -828 -501 -197 -262 -287 -608 -243
-929 20 -141 78 -324 137 -435 96 -177 255 -353 419 -462 47 -31 2045 -1196
4440 -2589 2395 -1393 4361 -2537 4367 -2543 7 -7 20 -39 28 -71 18 -71 74
-156 124 -191 20 -14 185 -123 366 -243 1357 -893 1924 -1393 2077 -1831 39
-112 140 -529 153 -638 22 -172 29 -517 16 -802 -31 -688 -102 -1283 -231
-1930 -111 -557 -135 -770 -127 -1122 4 -177 10 -260 26 -344 81 -432 284
-691 608 -775 348 -90 651 48 813 371 196 389 238 1002 130 1870 -61 495 -81
778 -87 1251 -8 603 19 931 108 1309 59 251 116 374 225 484 84 84 152 132
374 264 225 133 354 219 460 308 302 252 520 601 590 943 73 357 0 794 -177
1058 -158 237 -379 451 -658 637 -60 41 -746 420 -1523 844 -1092 596 -1427
774 -1470 783 -66 13 -149 6 -207 -20 l-41 -18 -4504 2579 c-2478 1419 -4539
2596 -4580 2617 -95 49 -202 87 -310 112 -114 27 -364 34 -475 14z m401 -515
c40 -10 107 -37 150 -59 44 -22 2111 -1203 4594 -2624 l4515 -2585 3 -56 c4
-67 -19 -206 -49 -296 -84 -259 -300 -555 -529 -725 -92 -70 -257 -159 -359
-196 -49 -18 -69 -20 -90 -12 -42 16 -8830 5131 -8896 5178 -117 83 -210 205
-264 344 -42 108 -55 195 -49 325 10 221 110 417 281 556 195 157 448 212 693
150z m11060 -6058 c703 -383 1313 -719 1354 -746 299 -194 542 -457 604 -655
53 -169 61 -445 17 -599 -51 -177 -198 -405 -353 -546 -94 -86 -196 -156 -449
-307 -341 -203 -486 -326 -613 -517 -104 -157 -165 -317 -225 -590 -86 -391
-115 -711 -115 -1252 0 -494 22 -838 94 -1445 44 -375 52 -487 51 -755 0 -374
-38 -636 -116 -795 -60 -121 -91 -145 -185 -145 -83 0 -133 23 -187 84 -83 95
-130 274 -140 536 -10 280 19 533 117 1020 166 821 250 1615 250 2350 0 465
-13 584 -106 952 -72 289 -116 422 -179 548 -234 467 -834 991 -2087 1825 -98
65 -178 121 -177 124 0 3 40 25 88 48 540 260 988 871 1052 1437 12 103 16
126 22 126 2 0 579 -314 1283 -698z"/>
<path d="M6356 7319 c-110 -26 -234 -129 -284 -236 -27 -57 -27 -61 -30 -305
l-4 -248 -241 0 c-172 0 -262 -5 -310 -15 -136 -29 -250 -116 -305 -233 l-27
-57 -3 -2940 c-2 -2646 -1 -2945 14 -2993 20 -70 49 -116 111 -174 59 -54 110
-82 190 -103 50 -13 905 -15 7305 -15 l7248 0 0 250 0 250 -7185 0 -7185 0 0
2760 0 2760 7185 0 7186 0 -3 518 -3 517 -23 44 c-31 58 -106 136 -160 168
-23 14 -70 34 -103 44 -59 19 -224 19 -6697 18 -3956 -1 -6653 -5 -6676 -10z
m13164 -639 l0 -150 -6485 0 -6485 0 0 150 0 150 6485 0 6485 0 0 -150z"/>
</g>
</svg>
